<?xml version="1.0" encoding="UTF-8"?>
<svg id="Layer_2" xmlns="http://www.w3.org/2000/svg" viewBox="0 0 1546.81 306.17">
  <defs>
    <style>
      .cls-1 {
        fill: #001854;
      }
    </style>
  </defs>
  <g id="Layer_1-2" data-name="Layer_1">
    <g>
      <g>
        <path class="cls-1" d="M0,103.67V20.82c0-.8.64-1.44,1.44-1.44h51c.8,0,1.44.64,1.44,1.44v11.81c0,.8-.64,1.44-1.44,1.44H17.61c-.8,0-1.44.64-1.44,1.44v17.82c0,.8.64,1.44,1.44,1.44h31.9c.8,0,1.44.64,1.44,1.44v11.81c0,.8-.64,1.44-1.44,1.44h-31.9c-.8,0-1.44.64-1.44,1.44v32.76c0,.8-.64,1.44-1.44,1.44H1.44c-.8,0-1.44-.64-1.44-1.44Z"/>
        <path class="cls-1" d="M53.16,103.3l21.78-82.84c.17-.63.74-1.07,1.39-1.07h25.95c.65,0,1.23.44,1.39,1.07l21.78,82.84c.24.91-.45,1.81-1.39,1.81h-13.66c-.66,0-1.24-.45-1.4-1.1l-4.11-16.67c-.16-.64-.74-1.1-1.4-1.1h-28.36c-.66,0-1.24.45-1.4,1.1l-4.11,16.67c-.16.64-.74,1.1-1.4,1.1h-13.66c-.94,0-1.63-.89-1.39-1.81ZM79.64,71.31h19.34c.94,0,1.62-.88,1.4-1.79l-9.7-38.9c-.16-.63-.72-1.07-1.37-1.07h0c-.65,0-1.21.44-1.37,1.07l-9.7,38.9c-.23.91.46,1.79,1.4,1.79Z"/>
        <path class="cls-1" d="M135.17,103.66l.07-82.84c0-.8.65-1.44,1.44-1.44h22.26c11.51,0,20.27,2.92,26.27,8.76,6,5.84,9,14.51,9,26.02v16.17c0,11.51-3,20.19-9,26.02-6,5.84-14.76,8.76-26.27,8.76h-22.33c-.8,0-1.44-.65-1.44-1.44ZM151.11,88.97c0,.8.64,1.44,1.44,1.44h6.64c6.53,0,11.31-1.71,14.33-5.14,3.02-3.43,4.53-8.25,4.53-14.45v-17.15c0-6.29-1.51-11.12-4.53-14.51-3.02-3.39-7.8-5.08-14.33-5.08h-6.64c-.8,0-1.44.64-1.44,1.44v53.45Z"/>
        <g>
          <rect class="cls-1" x="213.31" y="29.29" width="16.16" height="30.94" rx="1.44" ry="1.44" transform="translate(33.19 169.66) rotate(-45)"/>
          <rect class="cls-1" x="213.31" y="66.69" width="16.16" height="30.94" rx="1.44" ry="1.44" transform="translate(122.94 -132.48) rotate(45)"/>
          <rect class="cls-1" x="250.7" y="29.29" width="16.16" height="30.94" rx="1.44" ry="1.44" transform="translate(410.12 259.41) rotate(-135)"/>
          <rect class="cls-1" x="250.7" y="66.69" width="16.16" height="30.94" rx="1.44" ry="1.44" transform="translate(499.87 -42.73) rotate(135)"/>
        </g>
      </g>
      <g>
        <path class="cls-1" d="M819.21,105.11c-5.88,0-11.22-1.33-16-3.98s-8.58-6.54-11.4-11.64c-2.82-5.11-4.23-11.34-4.23-18.69v-20.59c0-11.03,3.1-19.51,9.32-25.43,6.21-5.92,14.63-8.89,25.25-8.89s18.69,2.8,24.45,8.4c5.76,5.6,8.64,13.18,8.64,22.74v.49h-15.93v-.98c0-3.02-.63-5.76-1.9-8.21-1.27-2.45-3.17-4.39-5.7-5.82-2.53-1.43-5.72-2.15-9.56-2.15-5.72,0-10.22,1.76-13.48,5.27-3.27,3.51-4.9,8.29-4.9,14.34v21.08c0,5.97,1.63,10.77,4.9,14.4,3.27,3.64,7.84,5.45,13.73,5.45s10.17-1.55,12.87-4.66c2.7-3.1,4.05-7.03,4.05-11.77v-1.23h-19.01c-.74,0-1.34-.6-1.34-1.34v-11.04c0-.74.6-1.34,1.34-1.34h33.6c.74,0,1.34.6,1.34,1.34v41.2c0,.74-.6,1.34-1.34,1.34h-12.27c-.74,0-1.34-.6-1.34-1.34v-5.53c0-.74-.6-1.34-1.34-1.34h0c-.5,0-.97.27-1.19.72-.57,1.18-1.38,2.41-2.43,3.69-1.27,1.55-3.17,2.86-5.7,3.92-2.53,1.06-6.01,1.59-10.42,1.59Z"/>
        <path class="cls-1" d="M870.69,101.97V19c0-.78.63-1.42,1.42-1.42h35.85c5.39,0,10.09.94,14.1,2.82,4,1.88,7.11,4.54,9.32,7.97,2.21,3.43,3.31,7.48,3.31,12.14v1.47c0,5.15-1.23,9.32-3.68,12.5-2.26,2.93-5,5.14-8.22,6.62-.51.23-.85.73-.85,1.29h0c0,.7.52,1.3,1.21,1.4,2.69.36,4.82,1.44,6.39,3.26,1.8,2.08,2.7,4.84,2.7,8.27v26.65c0,.78-.63,1.42-1.42,1.42h-13.35c-.78,0-1.42-.63-1.42-1.42v-24.32c0-1.96-.51-3.55-1.53-4.78-1.02-1.23-2.72-1.84-5.09-1.84h-21.14c-.78,0-1.42.63-1.42,1.42v29.53c0,.78-.63,1.42-1.42,1.42h-13.35c-.78,0-1.42-.63-1.42-1.42ZM886.87,54.9c0,.78.63,1.42,1.42,1.42h17.95c3.84,0,6.84-1.04,9.01-3.13,2.16-2.08,3.25-4.84,3.25-8.27v-1.23c0-3.43-1.06-6.19-3.19-8.27-2.13-2.08-5.15-3.13-9.07-3.13h-17.95c-.78,0-1.42.63-1.42,1.42v21.19Z"/>
        <path class="cls-1" d="M942.74,101.62l21.81-82.98c.16-.62.72-1.05,1.37-1.05h26.01c.64,0,1.2.43,1.37,1.05l21.81,82.98c.24.9-.44,1.77-1.37,1.77h-13.73c-.65,0-1.22-.44-1.37-1.07l-4.13-16.73c-.16-.63-.72-1.07-1.37-1.07h-28.43c-.65,0-1.22.44-1.37,1.07l-4.13,16.73c-.16.63-.72,1.07-1.37,1.07h-13.73c-.93,0-1.6-.88-1.37-1.77ZM969.21,69.56h19.43c.92,0,1.59-.86,1.37-1.75l-9.71-38.97c-.16-.63-.72-1.07-1.37-1.07h0c-.65,0-1.21.44-1.37,1.07l-9.71,38.97c-.22.89.45,1.75,1.37,1.75Z"/>
        <path class="cls-1" d="M1023.42,100.73v-8.9c0-1.47,1.19-2.66,2.66-2.66h5.96c1.47,0,2.66-1.19,2.66-2.66v-52.05c0-1.47-1.19-2.66-2.66-2.66h-5.96c-1.47,0-2.66-1.19-2.66-2.66v-8.9c0-1.47,1.19-2.66,2.66-2.66h32.64c11.52,0,20.29,2.92,26.29,8.76,6.01,5.84,9.01,14.53,9.01,26.05v16.18c0,11.52-3,20.21-9.01,26.05-6.01,5.84-14.77,8.76-26.29,8.76h-32.64c-1.47,0-2.66-1.19-2.66-2.66ZM1050.87,86.02c0,1.47,1.19,2.66,2.66,2.66h5.43c6.54,0,11.32-1.72,14.34-5.15,3.02-3.43,4.54-8.25,4.54-14.46v-17.16c0-6.29-1.51-11.13-4.54-14.53-3.02-3.39-7.8-5.09-14.34-5.09h-5.43c-1.47,0-2.66,1.19-2.66,2.66v51.07Z"/>
        <path class="cls-1" d="M1140.6,105.11c-7.03,0-13.05-1.29-18.08-3.86-5.03-2.57-8.87-6.25-11.52-11.03-2.66-4.78-3.98-10.44-3.98-16.98V20.22c0-1.46,1.18-2.63,2.63-2.63h10.91c1.46,0,2.63,1.18,2.63,2.63v53.5c0,5.23,1.49,9.36,4.47,12.38,2.98,3.02,7.29,4.54,12.93,4.54s9.95-1.51,12.93-4.54c2.98-3.02,4.47-7.15,4.47-12.38V20.22c0-1.46,1.18-2.63,2.63-2.63h10.91c1.46,0,2.63,1.18,2.63,2.63v53.01c0,6.54-1.33,12.2-3.98,16.98-2.66,4.78-6.5,8.46-11.52,11.03-5.03,2.57-11.05,3.86-18.08,3.86Z"/>
        <path class="cls-1" d="M1183.23,101.62l21.81-82.98c.16-.62.72-1.05,1.37-1.05h26.02c.64,0,1.2.43,1.37,1.05l21.81,82.98c.24.9-.44,1.77-1.37,1.77h-13.73c-.65,0-1.22-.44-1.37-1.07l-4.13-16.73c-.16-.63-.72-1.07-1.37-1.07h-28.43c-.65,0-1.22.44-1.37,1.07l-4.13,16.73c-.16.63-.72,1.07-1.37,1.07h-13.73c-.93,0-1.6-.88-1.37-1.77ZM1209.7,69.56h19.43c.92,0,1.59-.86,1.37-1.75l-9.72-38.97c-.16-.63-.72-1.07-1.37-1.07h0c-.65,0-1.21.44-1.37,1.07l-9.72,38.97c-.22.89.45,1.75,1.37,1.75Z"/>
        <path class="cls-1" d="M1278.37,101.9V33.78c0-.82-.67-1.49-1.49-1.49h-22.03c-.82,0-1.49-.67-1.49-1.49v-11.74c0-.82.67-1.49,1.49-1.49h63.22c.82,0,1.49.67,1.49,1.49v11.74c0,.82-.67,1.49-1.49,1.49h-22.03c-.82,0-1.49.67-1.49,1.49v68.12c0,.82-.67,1.49-1.49,1.49h-13.21c-.82,0-1.49-.67-1.49-1.49Z"/>
        <path class="cls-1" d="M1330.59,101.91V19.07c0-.82.66-1.48,1.48-1.48h52.2c.82,0,1.48.66,1.48,1.48v11.75c0,.82-.66,1.48-1.48,1.48h-36.02c-.82,0-1.48.66-1.48,1.48v17.51c0,.82.66,1.48,1.48,1.48h32.59c.82,0,1.48.66,1.48,1.48v11.75c0,.82-.66,1.48-1.48,1.48h-32.59c-.82,0-1.48.66-1.48,1.48v18.25c0,.82.66,1.48,1.48,1.48h36.76c.82,0,1.48.66,1.48,1.48v11.75c0,.82-.66,1.48-1.48,1.48h-52.94c-.82,0-1.48-.66-1.48-1.48Z"/>
      </g>
      <g>
        <path class="cls-1" d="M179.77,285.3v-83.24c0-.6.49-1.08,1.08-1.08h51.52c.6,0,1.08.49,1.08,1.08v12.47c0,.6-.49,1.08-1.08,1.08h-35.41c-.6,0-1.08.49-1.08,1.08v18.45c0,.6.49,1.08,1.08,1.08h32.48c.6,0,1.08.49,1.08,1.08v12.47c0,.6-.49,1.08-1.08,1.08h-32.48c-.6,0-1.08.49-1.08,1.08v33.34c0,.6-.49,1.08-1.08,1.08h-13.94c-.6,0-1.08-.49-1.08-1.08Z"/>
        <path class="cls-1" d="M244.93,285.3v-83.24c0-.6.49-1.08,1.08-1.08h52.74c.6,0,1.08.49,1.08,1.08v12.47c0,.6-.49,1.08-1.08,1.08h-36.63c-.6,0-1.08.49-1.08,1.08v18.21c0,.6.49,1.08,1.08,1.08h33.22c.6,0,1.08.49,1.08,1.08v12.47c0,.6-.49,1.08-1.08,1.08h-33.22c-.6,0-1.08.49-1.08,1.08v18.94c0,.6.49,1.08,1.08,1.08h37.36c.6,0,1.08.49,1.08,1.08v12.47c0,.6-.49,1.08-1.08,1.08h-53.47c-.6,0-1.08-.49-1.08-1.08Z"/>
        <path class="cls-1" d="M342.16,288.09c-6.59,0-12.4-1.18-17.45-3.54-5.04-2.36-8.99-5.73-11.84-10.13-2.85-4.39-4.27-9.68-4.27-15.86v-2.33c0-.6.49-1.08,1.08-1.08h13.69c.6,0,1.08.49,1.08,1.08v2.33c0,5.12,1.59,8.97,4.76,11.53,3.17,2.56,7.48,3.84,12.93,3.84s9.66-1.1,12.38-3.29c2.72-2.2,4.09-5,4.09-8.42,0-2.36-.67-4.27-2.01-5.73s-3.29-2.66-5.86-3.6c-2.56-.93-5.67-1.81-9.33-2.62l-2.81-.61c-5.86-1.3-10.88-2.95-15.07-4.94-4.19-1.99-7.4-4.62-9.64-7.87-2.24-3.25-3.36-7.48-3.36-12.69s1.24-9.66,3.72-13.36c2.48-3.7,5.98-6.55,10.49-8.54,4.51-1.99,9.82-2.99,15.92-2.99s11.53,1.04,16.29,3.11c4.76,2.07,8.5,5.17,11.22,9.27,2.72,4.11,4.09,9.25,4.09,15.43v2.58c0,.6-.49,1.08-1.08,1.08h-13.69c-.6,0-1.08-.49-1.08-1.08v-2.58c0-3.25-.63-5.88-1.89-7.87-1.26-1.99-3.07-3.46-5.43-4.39-2.36-.93-5.17-1.4-8.42-1.4-4.88,0-8.48.92-10.8,2.75s-3.48,4.33-3.48,7.5c0,2.12.55,3.9,1.65,5.37s2.75,2.68,4.94,3.66c2.2.98,5,1.83,8.42,2.56l2.81.61c6.1,1.3,11.41,2.97,15.92,5,4.51,2.03,8.03,4.72,10.55,8.05,2.52,3.34,3.78,7.61,3.78,12.81s-1.32,9.78-3.97,13.73c-2.64,3.95-6.39,7.04-11.22,9.27-4.84,2.24-10.55,3.36-17.14,3.36Z"/>
        <path class="cls-1" d="M403.54,285.3v-68.6c0-.6-.49-1.08-1.08-1.08h-22.72c-.6,0-1.08-.49-1.08-1.08v-12.47c0-.6.49-1.08,1.08-1.08h63.72c.6,0,1.08.49,1.08,1.08v12.47c0,.6-.49,1.08-1.08,1.08h-22.72c-.6,0-1.08.49-1.08,1.08v68.6c0,.6-.49,1.08-1.08,1.08h-13.94c-.6,0-1.08-.49-1.08-1.08Z"/>
        <path class="cls-1" d="M455.51,285.3v-83.24c0-.6.49-1.08,1.08-1.08h13.94c.6,0,1.08.49,1.08,1.08v83.24c0,.6-.49,1.08-1.08,1.08h-13.94c-.6,0-1.08-.49-1.08-1.08Z"/>
        <path class="cls-1" d="M503.37,285.57l-21.17-83.24c-.17-.68.34-1.35,1.05-1.35h14.35c.5,0,.94.34,1.05.83l17.66,73.37c.12.49.55.83,1.05.83h0c.5,0,.94-.34,1.05-.83l17.66-73.37c.12-.49.55-.83,1.05-.83h14.35c.71,0,1.22.67,1.05,1.35l-21.17,83.24c-.12.48-.55.82-1.05.82h-25.89c-.5,0-.93-.34-1.05-.82Z"/>
        <path class="cls-1" d="M552.01,285.02l21.88-83.24c.13-.48.56-.81,1.05-.81h26.39c.49,0,.92.33,1.05.81l21.88,83.24c.18.69-.34,1.36-1.05,1.36h-14.34c-.5,0-.93-.34-1.05-.82l-4.23-17.14c-.12-.48-.55-.82-1.05-.82h-28.8c-.5,0-.93.34-1.05.82l-4.23,17.14c-.12.48-.55.82-1.05.82h-14.34c-.71,0-1.23-.67-1.05-1.36ZM578.05,252.71h20.16c.7,0,1.22-.66,1.05-1.35l-9.83-39.44c-.12-.48-.55-.82-1.05-.82h-.5c-.5,0-.93.34-1.05.82l-9.83,39.44c-.17.68.35,1.35,1.05,1.35Z"/>
        <path class="cls-1" d="M634.86,285.3v-83.24c0-.6.49-1.08,1.08-1.08h13.94c.6,0,1.08.49,1.08,1.08v68.6c0,.6.49,1.08,1.08,1.08h36.88c.6,0,1.08.49,1.08,1.08v12.47c0,.6-.49,1.08-1.08,1.08h-52.98c-.6,0-1.08-.49-1.08-1.08Z"/>
      </g>
      <g>
        <path class="cls-1" d="M886.55,285.92c-.76,0-1.38-.62-1.38-1.38v-8.76c0-5.87.97-10.76,2.9-14.66,1.93-3.9,4.73-7.12,8.39-9.65,3.66-2.53,8.15-4.61,13.46-6.22l8.08-2.53c2.98-.97,5.47-2.15,7.48-3.56,2.01-1.41,3.56-3.12,4.65-5.13,1.09-2.01,1.63-4.3,1.63-6.88v-.48c0-4.02-1.37-7.22-4.1-9.59-2.74-2.37-6.48-3.56-11.22-3.56s-8.43,1.27-11.28,3.8c-2.86,2.53-4.28,6.18-4.28,10.92v.79c0,.76-.62,1.38-1.38,1.38h-12.68c-.76,0-1.38-.62-1.38-1.38v-.55c0-6.11,1.37-11.3,4.1-15.57,2.73-4.26,6.46-7.52,11.16-9.77,4.71-2.25,9.96-3.38,15.75-3.38s11.02,1.11,15.69,3.32c4.67,2.21,8.35,5.31,11.04,9.29,2.69,3.98,4.04,8.67,4.04,14.06v1.21c0,5.39-1.11,9.96-3.32,13.7-2.21,3.74-5.21,6.8-8.99,9.17-3.78,2.37-8.08,4.33-12.91,5.85l-7.72,2.41c-3.46,1.05-6.15,2.19-8.08,3.44-1.93,1.25-3.28,2.62-4.04,4.1-.77,1.49-1.15,3.28-1.15,5.37v.48h44.11c.76,0,1.38.62,1.38,1.38v10.99c0,.76-.62,1.38-1.38,1.38h-58.54Z"/>
        <path class="cls-1" d="M990.88,287.6c-9.98,0-17.98-2.75-24.01-8.27-6.03-5.51-9.05-13.86-9.05-25.04v-21.24c0-10.86,3.02-19.13,9.05-24.8,6.03-5.67,14.04-8.51,24.01-8.51s18.08,2.84,24.08,8.51c5.99,5.67,8.99,13.94,8.99,24.8v21.24c0,11.18-3,19.53-8.99,25.04-5.99,5.51-14.02,8.27-24.08,8.27ZM990.88,273.85c6.03,0,10.48-1.65,13.34-4.95,2.85-3.3,4.28-8,4.28-14.12v-22.45c0-6.19-1.59-10.88-4.77-14.06-3.18-3.18-7.46-4.77-12.85-4.77s-9.88,1.65-12.97,4.95c-3.1,3.3-4.65,7.92-4.65,13.88v22.45c0,6.36,1.47,11.12,4.41,14.3,2.94,3.18,7.34,4.77,13.21,4.77Z"/>
        <path class="cls-1" d="M1036.43,285.92c-.76,0-1.38-.62-1.38-1.38v-8.76c0-5.87.97-10.76,2.9-14.66,1.93-3.9,4.73-7.12,8.39-9.65,3.66-2.53,8.15-4.61,13.46-6.22l8.08-2.53c2.98-.97,5.47-2.15,7.48-3.56,2.01-1.41,3.56-3.12,4.65-5.13,1.08-2.01,1.63-4.3,1.63-6.88v-.48c0-4.02-1.37-7.22-4.1-9.59-2.74-2.37-6.48-3.56-11.22-3.56s-8.43,1.27-11.28,3.8c-2.86,2.53-4.28,6.18-4.28,10.92v.79c0,.76-.62,1.38-1.38,1.38h-12.68c-.76,0-1.38-.62-1.38-1.38v-.55c0-6.11,1.37-11.3,4.1-15.57,2.73-4.26,6.46-7.52,11.16-9.77,4.71-2.25,9.96-3.38,15.75-3.38s11.02,1.11,15.69,3.32c4.67,2.21,8.35,5.31,11.04,9.29,2.69,3.98,4.04,8.67,4.04,14.06v1.21c0,5.39-1.11,9.96-3.32,13.7s-5.21,6.8-8.99,9.17c-3.78,2.37-8.08,4.33-12.91,5.85l-7.72,2.41c-3.46,1.05-6.15,2.19-8.08,3.44-1.93,1.25-3.28,2.62-4.04,4.1-.77,1.49-1.15,3.28-1.15,5.37v.48h44.11c.76,0,1.38.62,1.38,1.38v10.99c0,.76-.62,1.38-1.38,1.38h-58.54Z"/>
        <path class="cls-1" d="M1144.38,284.53v-14.37c0-.76-.62-1.38-1.38-1.38h-38.75c-.76,0-1.38-.62-1.38-1.38v-16.1c0-.25.07-.49.19-.7l28.61-48.47c.25-.42.7-.68,1.19-.68h25.58c.76,0,1.38.62,1.38,1.38v50.82c0,.76.62,1.38,1.38,1.38h11.23c.76,0,1.38.62,1.38,1.38v10.99c0,.76-.62,1.38-1.38,1.38h-11.23c-.76,0-1.38.62-1.38,1.38v14.37c0,.76-.62,1.38-1.38,1.38h-12.68c-.76,0-1.38-.62-1.38-1.38ZM1118.97,255.02h24.03c.76,0,1.38-.62,1.38-1.38v-40.92c0-.76-.62-1.38-1.38-1.38h0c-.49,0-.94.26-1.19.68l-24.03,40.75c-.13.21-.19.46-.19.7v.17c0,.76.62,1.38,1.38,1.38Z"/>
      </g>
      <rect class="cls-1" x="627.26" width="124.67" height="124.67" rx="15.92" ry="15.92"/>
      <rect class="cls-1" x="1422.14" width="124.67" height="124.67" rx="15.92" ry="15.92"/>
      <rect class="cls-1" x="317.03" width="275.69" height="124.67" rx="15.92" ry="15.92"/>
      <rect class="cls-1" x="1192.75" y="181.5" width="354.07" height="124.67" rx="15.92" ry="15.92"/>
      <rect class="cls-1" x="725.25" y="181.5" width="124.67" height="124.67" rx="15.92" ry="15.92"/>
      <rect class="cls-1" y="181.5" width="124.67" height="124.67" rx="15.92" ry="15.92"/>
    </g>
  </g>
</svg>