<?xml version="1.0" encoding="UTF-8"?>
<svg id="Layer_1" xmlns="http://www.w3.org/2000/svg" viewBox="0 0 1281.81 399.12">
    <defs>
    <style>
        .cls-1 {
        fill: #fff;
        }
    </style>
    </defs>
    <path class="cls-1" d="M0,392.41V6.71C0,3,3,0,6.71,0h237.46c3.7,0,6.71,3,6.71,6.71v55.01c0,3.7-3,6.71-6.71,6.71H81.97c-3.7,0-6.71,3-6.71,6.71v82.95c0,3.7,3,6.71,6.71,6.71h148.51c3.7,0,6.71,3,6.71,6.71v55.01c0,3.7-3,6.71-6.71,6.71H81.97c-3.7,0-6.71,3-6.71,6.71v152.51c0,3.7-3,6.71-6.71,6.71H6.71c-3.7,0-6.71-3-6.71-6.71Z"/>
    <path class="cls-1" d="M247.52,390.71L348.9,5c.77-2.95,3.44-5,6.49-5h120.8c3.05,0,5.71,2.05,6.49,5l101.38,385.71c1.12,4.25-2.09,8.41-6.49,8.41h-63.6c-3.09,0-5.77-2.1-6.51-5.1l-19.15-77.61c-.74-3-3.43-5.1-6.51-5.1h-132.04c-3.09,0-5.77,2.1-6.51,5.1l-19.15,77.61c-.74,3-3.43,5.1-6.51,5.1h-63.6c-4.4,0-7.6-4.16-6.49-8.41ZM370.78,241.75h90.02c4.36,0,7.56-4.1,6.51-8.33l-45.15-181.12c-.73-2.93-3.36-4.98-6.37-4.98h0c-3.02,0-5.64,2.05-6.37,4.98l-45.14,181.12c-1.05,4.23,2.15,8.33,6.51,8.33Z"/>
    <path class="cls-1" d="M629.34,392.41l.34-385.71c0-3.7,3-6.7,6.71-6.7h103.64c53.59,0,94.36,13.59,122.3,40.77,27.93,27.18,41.9,67.56,41.9,121.16v75.26c0,53.59-13.97,93.99-41.9,121.16-27.94,27.18-68.71,40.77-122.3,40.77h-103.98c-3.71,0-6.71-3.01-6.71-6.71ZM703.53,323.99c0,3.7,3,6.71,6.71,6.71h30.93c30.41,0,52.64-7.98,66.71-23.94,14.06-15.97,21.1-38.39,21.1-67.28v-79.82c0-29.27-7.04-51.79-21.1-67.56-14.07-15.77-36.3-23.66-66.71-23.66h-30.93c-3.7,0-6.71,3-6.71,6.71v248.87Z"/>
    <g>
    <rect class="cls-1" x="993.12" y="46.15" width="75.26" height="144.07" rx="1.44" ry="1.44" transform="translate(218.33 763.47) rotate(-45)"/>
    <rect class="cls-1" x="993.12" y="220.26" width="75.26" height="144.07" rx="1.44" ry="1.44" transform="translate(508.58 -643.24) rotate(45)"/>
    <rect class="cls-1" x="1167.23" y="46.15" width="75.26" height="144.07" rx="1.44" ry="1.44" transform="translate(1973.26 1053.72) rotate(-135)"/>
    <rect class="cls-1" x="1167.23" y="220.26" width="75.26" height="144.07" rx="1.44" ry="1.44" transform="translate(2263.51 -352.99) rotate(135)"/>
    </g>
</svg>